<?xml version="1.0" encoding="UTF-8"?>
<svg id="Ebene_1" xmlns="http://www.w3.org/2000/svg" version="1.1" viewBox="0 0 4621.2 1500">
  <!-- Generator: Adobe Illustrator 30.0.0, SVG Export Plug-In . SVG Version: 2.1.1 Build 123)  -->
  <defs>
    <style>
      .st0 {
        fill: #d0182b;
      }

      .st1 {
        fill: #fff;
      }

      .st2 {
        fill: #de223c;
      }

      .st3 {
        fill: #fefefe;
      }
    </style>
  </defs>
  <g>
    <path class="st0" d="M195.3,727.9c-7.6-1.8-15.5-3.7-17.5-4.1-3.1-.7-3.8-1.5-3.8-5v-4.2c63.7-.2,133.2-.4,201-.5v-338h180c99.4,0,180-80.6,180-180V1h-180c-1.9,0-3.8,0-5.8.1-96.7,3-174.2,82.4-174.2,179.9v194h-158C97.2,375,0,472.2,0,592v316c0,119.8,97.2,217,217,217h158v-355.5c-69.7-16.1-147-34-179.7-41.5Z"/>
    <path class="st2" d="M945,1125h37c-41.5,0-80.3-11.7-113.3-31.9-.4,1.3-.9,2.7-1.4,4.2-3.6,9.8-11.2,17.9-22,23.4-6.9,3.5-10.2,4.3-17.9,4.3s-10.1-.7-11.2-1.8c-1-1-3.6-2.7-5.8-3.9-6.8-3.6-15.4-12.3-17.7-17.9-6-19.9-104.7-478.6-104.7-478.6-1.8-8.3-4.3-20.1-5.6-26.1-1.3-6-2.8-11-3.3-11s-2.7,5.3-4.6,11.7c-4.8,15.7-38.4,122.2-43.1,138.3-6.2,20.9-5.7,16.5-11.7,36.7-5,16.5-8.9,22.3-18.2,26.9-5.5,2.8-8.2,2.9-47.4,2.9s-42.6-.6-43.9-1.3c-.7-.4-64-15.1-135-31.5v535.5c0,107.7,87.3,195,195,195s7.1-.1,10.7-.3c3.8.2,7.5.3,11.3.3h173v-195c0-99.4,80.6-180,180-180Z"/>
    <path class="st2" d="M735,1v195c0,99.4-80.6,180-180,180h-180v338c62.5-.1,123.6-.2,177.7-.2,1.6-4.4,2.9-8.2,4.5-14.2,2.6-9.5,97-304.2,99.9-308.5,9.8-14.5,31.6-20.5,46.4-12.8,7.5,3.9,17.7,15,18.8,20.5.4,2,1.7,7.5,2.9,12.1,9.4,44.5,24.2,113.8,39.8,187.1v-6.1c0-119.8,97.2-217,217-217h143v-158c0-119.8-97.2-217-217-217h-316c-3.8,0-7.6,0-11.3.3-3.5-.2-7.1-.3-10.7-.3-7,0-13.9.4-20.8,1.1,1.9,0,3.8-.1,5.8-.1h180Z"/>
    <path class="st0" d="M1283,375h-301c-119.8,0-217,97.2-217,217v6.1c31.9,149.4,67.4,315.4,68.6,322.8.5,3.3,1.5,6,2.1,6s1.9-2.7,2.7-6c13-45.6,34.1-114.8,48.1-160.3,1.6-4.7,3.5-12.1,4.2-16.6,1.6-9.7,5-16,11.6-21.4,10.4-8.4,4.1-8.1,129.9-8.1s115.8-.5,116.4-1.4c.8-1.2-2.5-9.3-18-45.1-6.7-15.4-5.5-28.1,3.4-38.5,4.8-5.6,5.5-5.9,14.7-6.6,7.2-.5,10.8-.1,13.9,1.5,3.6,1.9,127.3,99.6,153.7,121.4,5,4.1,8.9,8.2,8.6,9-.6,2-21.1,19.3-99,83.6-60.2,49.7-66.2,54.3-72.2,55.3-5.4.8-7.5.4-12.6-2.4-3.4-1.9-8-5.8-10.3-8.8-3.7-4.7-4.3-6.7-4.7-16-.3-7.1,2.8-18,9.4-32.8,5.4-12.2,10.8-23.8,11.9-25.9,1.1-2.1,1.9-4.1,1.9-4.6-8.2-1.3-157.1-.1-191.6-.1-28.7,93.1-87.7,283.8-87.7,284.8s-.6,2.7-1.4,5.3c33,20.2,71.8,31.9,113.3,31.9h-37c-99.4,0-180,80.6-180,180v195h180c99.4,0,180-80.6,180-180v-195h158c119.8,0,217-97.2,217-217v-316c0-119.8-97.2-217-217-217Z"/>
    <path class="st3" d="M722.3,398.9c-1.2-5.5-11.3-16.6-18.8-20.5-14.8-7.7-36.6-1.7-46.4,12.8-3,4.4-97.3,299-99.9,308.5-1.6,6-2.9,9.7-4.5,14.2-54,0-115.2,0-177.7.2-67.8.1-137.3.3-201,.5v4.2c0,3.5.7,4.4,3.8,5,2.1.4,10,2.3,17.5,4.1,32.7,7.6,109.9,25.4,179.7,41.5,71,16.4,134.3,31.1,135,31.5,1.3.8,20.6,1.3,43.9,1.3,39.2,0,41.9-.2,47.4-2.9,9.3-4.6,13.2-10.4,18.2-26.9,6.1-20.2,5.5-15.8,11.7-36.7,4.8-16.1,38.3-122.7,43.1-138.3,2-6.4,4-11.7,4.6-11.7s2.1,4.9,3.3,11c1.3,6,3.8,17.8,5.6,26.1,0,0,98.7,458.7,104.7,478.6,2.4,5.7,10.9,14.3,17.7,17.9,2.2,1.2,4.8,2.9,5.8,3.9,1.1,1.1,5.6,1.8,11.2,1.8s10.9-.8,17.9-4.3c10.8-5.5,18.5-13.7,22-23.4.5-1.4,1-2.9,1.4-4.2.8-2.6,1.4-4.7,1.4-5.3,0-.9,59-191.7,87.7-284.8,34.5,0,183.3-1.1,191.6.1,0,.5-.9,2.5-1.9,4.6-1.1,2.1-6.4,13.7-11.9,25.9-6.6,14.8-9.7,25.7-9.4,32.8.4,9.3,1,11.3,4.7,16,2.3,3,7,6.9,10.3,8.8,5.1,2.8,7.2,3.2,12.6,2.4,5.9-.9,11.9-5.5,72.2-55.3,77.9-64.3,98.4-81.6,99-83.6.3-.8-3.6-4.9-8.6-9-26.5-21.8-150.2-119.5-153.7-121.4-3.1-1.7-6.7-2-13.9-1.5-9.3.7-9.9,1-14.7,6.6-8.9,10.4-10.1,23.1-3.4,38.5,15.6,35.9,18.8,43.9,18,45.1-.6.9-40.3,1.4-116.4,1.4-125.8,0-119.5-.4-129.9,8.1-6.6,5.4-10,11.6-11.6,21.4-.7,4.4-2.6,11.9-4.2,16.6-14,45.5-35.1,114.6-48.1,160.3-.8,3.3-2.1,6-2.7,6s-1.6-2.7-2.1-6c-1.2-7.4-36.7-173.4-68.6-322.8-15.6-73.3-30.4-142.5-39.8-187.1-1.1-4.7-2.4-10.1-2.9-12.1Z"/>
  </g>
  <g>
    <path class="st1" d="M2605.1,856.9c0,8.8-.8,20.3-2.5,34.4s-6.5,29.4-14.6,45.7c-8.1,16.3-21.6,32.5-40.3,48.6-18.7,16.1-44.9,30.8-78.6,44.2s-76.8,24.1-129.4,32.2c-52.6,8.1-117.1,12.2-193.6,12.2s-119.8-2.9-174.8-8.8c-55-5.9-103.7-16.1-146-30.8s-75.6-34.9-99.8-60.8-36.4-58.8-36.4-98.9h223.6c0,16.3,5.5,29.5,16.6,39.8s25.5,18.2,43.2,23.9c17.8,5.7,37,9.9,57.9,12.5,20.8,2.6,41.4,4.2,61.8,4.6,20.3.5,38.3.7,54,.7,51.1,0,92.7-2.7,124.8-8.1s57-12.6,74.7-21.7c17.8-9.1,30-19.7,36.6-31.7,6.7-12,10-24.7,10-38.1s-10-31.9-30-41c-20-9.1-48.6-15.7-85.7-19.8-37.1-4.1-81.7-7.2-133.8-9.5-14-.7-27.8-1.3-41.5-2-44.6-2-87.4-4.4-128.4-7.3-41-2.9-78.8-7.7-113.3-14.4-34.5-6.7-64.6-16.4-90.3-29s-45.8-29.5-60.1-50.5c-14.3-21-21.5-47.8-21.5-80.3s.8-20.3,2.4-34.4,6.5-29.4,14.7-45.7c8.1-16.3,21.6-32.5,40.3-48.6,18.7-16.1,44.9-30.8,78.6-44.2s76.8-24.1,129.4-32.2,116.9-12.2,193.1-12.2,120.3,2.9,175.3,8.8,103.6,16.1,145.8,30.8,75.4,34.9,99.8,60.8,36.6,58.8,36.6,98.9h-224.1c0-16.3-5.5-29.5-16.4-39.8s-25.2-18.3-43-24.2-37-10-57.9-12.5c-20.8-2.4-41.5-3.9-62-4.4s-38.6-.7-54.2-.7c-50.8,0-92.2,2.7-124.3,8.1s-57,12.6-74.7,21.7c-17.8,9.1-30,19.7-36.6,31.7-6.7,12-10,24.8-10,38.1s10,31.9,30,41c20,9.1,48.6,15.6,85.7,19.5s81.7,7,133.8,9.3c14,1,27.8,1.6,41.5,2,44.6,2,87.4,4.5,128.4,7.6s78.8,7.9,113.3,14.4c34.5,6.5,64.6,16.1,90.3,28.8s45.7,29.6,60.1,50.8c14.3,21.2,21.5,48,21.5,80.6Z"/>
    <path class="st1" d="M3359.6,402.3h223.6l-335.9,656.2h-290.5l-336.4-656.2h224.1l257.3,543.5,257.8-543.5Z"/>
    <path class="st1" d="M4024.6,929.1c14.3,0,33.6-.7,57.9-2.2s49.5-6,75.9-13.7c26.4-7.6,50.5-20.2,72.3-37.8s37.8-42.2,47.9-73.8h204.6c-12,89.5-56,157.3-131.8,203.4s-184.7,69.1-326.7,69.1-271.1-27.7-347.4-83c-76.3-55.3-114.5-136.4-114.5-243.2v-36.1c0-106.8,38.2-187.8,114.5-243.2,76.3-55.3,192.1-83,347.4-83s250.8,23,326.7,69.1,119.8,113.7,131.8,202.9h-204.6c-10.1-31.2-26-55.7-47.9-73.2s-45.9-30.2-72.3-37.8c-26.4-7.7-51.7-12.2-75.9-13.7s-43.5-2.2-57.9-2.2-30.4.6-52,1.7c-21.7,1.1-44.5,4.6-68.6,10.5s-46.9,15.5-68.4,28.8-39.1,32-53,55.9c-13.8,23.9-20.8,54.9-20.8,93v18.1c0,38.1,6.9,69.1,20.8,93,13.8,23.9,31.5,42.7,53,56.2,21.5,13.5,44.3,23.2,68.4,29.1s47,9.4,68.6,10.5,39,1.7,52,1.7Z"/>
  </g>
</svg>